<svg xmlns="http://www.w3.org/2000/svg" viewBox="0 0 1024 1024">
  <defs>
    <linearGradient id="tile" x1="0" y1="0" x2="0" y2="1">
      <stop offset="0" stop-color="#FFDF33"/>
      <stop offset="1" stop-color="#F5C800"/>
    </linearGradient>
  </defs>
  <rect width="1024" height="1024" rx="232" fill="url(#tile)"/>
  <g transform="translate(512 512) scale(7.5) translate(-51.75 -49.75)" fill="none" stroke="#1C1E24" stroke-linecap="round">
    <path d="M21 85 C27 72 29 64 36 54 C41 46.5 47 41 54 36.5 C62 31.5 69 29 76 27.8"
          stroke-width="9" opacity=".3" transform="translate(2 -1.4)"/>
    <path d="M21 85 C27 72 29 64 36 54 C41 46.5 47 41 54 36.5 C62 31.5 69 29 76 27.8" stroke-width="10"/>
    <path d="M60 14.5 C67 18 74 22.5 81 28.5" stroke-width="10"/>
    <path d="M82.5 25.5 C76.5 32.5 72 40.5 69.5 48" stroke-width="10"/>
  </g>
</svg>
